<svg xmlns="http://www.w3.org/2000/svg" xmlns:xlink="http://www.w3.org/1999/xlink" width="500" zoomAndPan="magnify" viewBox="0 0 375 374.999991" height="500" preserveAspectRatio="xMidYMid meet" version="1.0"><defs><g/></defs><rect x="-37.5" width="450" fill="#ffffff" y="-37.499999" height="449.999989" fill-opacity="1"/><rect x="-37.5" width="450" fill="#f1e5e1" y="-37.499999" height="449.999989" fill-opacity="1"/><path fill="#d87678" d="M 226.714844 196.75 L 219.132812 130.074219 C 218.820312 127.457031 216.617188 125.480469 213.980469 125.480469 L 205.566406 125.480469 L 205.566406 121.203125 C 205.566406 111.210938 197.425781 103.070312 187.433594 103.070312 C 177.441406 103.070312 169.300781 111.210938 169.300781 121.203125 L 169.300781 125.480469 L 160.886719 125.480469 C 158.25 125.480469 156.027344 127.457031 155.738281 130.074219 L 153.742188 147.5625 C 156.859375 148.082031 159.847656 149.578125 162.21875 151.925781 L 164.542969 154.25 L 166.871094 151.925781 C 172.355469 146.441406 181.367188 145.628906 187.121094 150.824219 C 193.269531 156.347656 193.457031 165.800781 187.703125 171.574219 C 187.703125 171.574219 170.109375 189.167969 169.613281 189.667969 C 166.808594 192.472656 162.28125 192.472656 159.496094 189.667969 C 155.964844 186.136719 152.972656 183.144531 150.023438 180.195312 L 148.132812 196.75 C 147.78125 199.949219 150.273438 202.730469 153.472656 202.730469 L 221.375 202.730469 C 224.59375 202.730469 227.085938 199.949219 226.714844 196.75 Z M 171.605469 135.535156 C 170.339844 135.535156 169.300781 134.496094 169.300781 133.210938 C 169.300781 131.941406 170.339844 130.902344 171.605469 130.902344 C 172.894531 130.902344 173.933594 131.941406 173.933594 133.210938 C 173.933594 134.496094 172.894531 135.535156 171.605469 135.535156 Z M 173.933594 125.480469 L 173.933594 121.203125 C 173.933594 113.765625 179.976562 107.703125 187.433594 107.703125 C 194.871094 107.703125 200.9375 113.765625 200.9375 121.203125 L 200.9375 125.480469 Z M 203.242188 135.535156 C 201.972656 135.535156 200.9375 134.496094 200.9375 133.210938 C 200.9375 131.941406 201.972656 130.902344 203.242188 130.902344 C 204.527344 130.902344 205.566406 131.941406 205.566406 133.210938 C 205.566406 134.496094 204.527344 135.535156 203.242188 135.535156 Z M 203.242188 135.535156 " fill-opacity="1" fill-rule="nonzero"/><g fill="#764657" fill-opacity="1"><g transform="translate(107.16625, 237.326996)"><g><path d="M 6.125 0.203125 C 4.507812 0.203125 3.21875 -0.300781 2.25 -1.3125 C 1.28125 -2.320312 0.796875 -3.710938 0.796875 -5.484375 L 0.796875 -15.6875 C 0.796875 -17.882812 1.234375 -19.539062 2.109375 -20.65625 C 2.984375 -21.769531 4.359375 -22.328125 6.234375 -22.328125 C 7.859375 -22.328125 9.171875 -21.878906 10.171875 -20.984375 C 11.171875 -20.085938 11.671875 -18.800781 11.671875 -17.125 L 11.671875 -13.3125 L 7.265625 -13.3125 L 7.265625 -16.578125 C 7.265625 -17.210938 7.1875 -17.648438 7.03125 -17.890625 C 6.875 -18.128906 6.609375 -18.25 6.234375 -18.25 C 5.835938 -18.25 5.566406 -18.113281 5.421875 -17.84375 C 5.273438 -17.570312 5.203125 -17.171875 5.203125 -16.640625 L 5.203125 -5.53125 C 5.203125 -4.945312 5.285156 -4.519531 5.453125 -4.25 C 5.628906 -3.988281 5.890625 -3.859375 6.234375 -3.859375 C 6.921875 -3.859375 7.265625 -4.414062 7.265625 -5.53125 L 7.265625 -9.53125 L 11.71875 -9.53125 L 11.71875 -5.359375 C 11.71875 -1.648438 9.851562 0.203125 6.125 0.203125 Z M 6.125 0.203125 "/></g></g></g><g fill="#764657" fill-opacity="1"><g transform="translate(122.717525, 237.326996)"><g><path d="M 6.25 0.203125 C 4.46875 0.203125 3.113281 -0.335938 2.1875 -1.421875 C 1.257812 -2.515625 0.796875 -4.050781 0.796875 -6.03125 L 0.796875 -16.5625 C 0.796875 -18.46875 1.257812 -19.90625 2.1875 -20.875 C 3.113281 -21.84375 4.46875 -22.328125 6.25 -22.328125 C 8.039062 -22.328125 9.398438 -21.84375 10.328125 -20.875 C 11.253906 -19.90625 11.71875 -18.46875 11.71875 -16.5625 L 11.71875 -6.03125 C 11.71875 -4.03125 11.253906 -2.488281 10.328125 -1.40625 C 9.398438 -0.332031 8.039062 0.203125 6.25 0.203125 Z M 6.25 -3.859375 C 6.644531 -3.859375 6.910156 -4.03125 7.046875 -4.375 C 7.191406 -4.71875 7.265625 -5.195312 7.265625 -5.8125 L 7.265625 -16.640625 C 7.265625 -17.117188 7.195312 -17.503906 7.0625 -17.796875 C 6.9375 -18.097656 6.675781 -18.25 6.28125 -18.25 C 5.539062 -18.25 5.171875 -17.691406 5.171875 -16.578125 L 5.171875 -5.796875 C 5.171875 -5.160156 5.25 -4.675781 5.40625 -4.34375 C 5.5625 -4.019531 5.84375 -3.859375 6.25 -3.859375 Z M 6.25 -3.859375 "/></g></g></g><g fill="#764657" fill-opacity="1"><g transform="translate(138.577756, 237.326996)"><g><path d="M 0.984375 0 L 0.984375 -22.125 L 7.71875 -22.125 L 9.578125 -8.625 L 11.4375 -22.125 L 18.234375 -22.125 L 18.234375 0 L 14.1875 0 L 14.1875 -15.9375 L 11.640625 0 L 7.671875 0 L 4.96875 -15.9375 L 4.96875 0 Z M 0.984375 0 "/></g></g></g><g fill="#764657" fill-opacity="1"><g transform="translate(161.131994, 237.326996)"><g><path d="M 0.984375 -22.125 L 6.828125 -22.125 C 8.585938 -22.125 9.84375 -21.550781 10.59375 -20.40625 C 11.351562 -19.257812 11.734375 -17.59375 11.734375 -15.40625 C 11.734375 -13.207031 11.398438 -11.546875 10.734375 -10.421875 C 10.066406 -9.304688 8.863281 -8.75 7.125 -8.75 L 5.328125 -8.75 L 5.328125 0 L 0.984375 0 Z M 5.59375 -12.75 C 6.125 -12.75 6.507812 -12.847656 6.75 -13.046875 C 7 -13.242188 7.160156 -13.523438 7.234375 -13.890625 C 7.316406 -14.265625 7.359375 -14.789062 7.359375 -15.46875 C 7.359375 -16.394531 7.253906 -17.066406 7.046875 -17.484375 C 6.847656 -17.898438 6.4375 -18.109375 5.8125 -18.109375 L 5.328125 -18.109375 L 5.328125 -12.75 Z M 5.59375 -12.75 "/></g></g></g><g fill="#764657" fill-opacity="1"><g transform="translate(176.631779, 237.326996)"><g><path d="M 0.984375 -22.125 L 7.78125 -22.125 C 8.863281 -22.125 9.695312 -21.878906 10.28125 -21.390625 C 10.875 -20.898438 11.273438 -20.210938 11.484375 -19.328125 C 11.691406 -18.441406 11.796875 -17.3125 11.796875 -15.9375 C 11.796875 -14.6875 11.628906 -13.707031 11.296875 -13 C 10.972656 -12.300781 10.410156 -11.8125 9.609375 -11.53125 C 10.273438 -11.394531 10.757812 -11.0625 11.0625 -10.53125 C 11.363281 -10 11.515625 -9.28125 11.515625 -8.375 L 11.453125 0 L 7.125 0 L 7.125 -8.65625 C 7.125 -9.269531 7.003906 -9.660156 6.765625 -9.828125 C 6.523438 -10.003906 6.085938 -10.09375 5.453125 -10.09375 L 5.453125 0 L 0.984375 0 Z M 6.546875 -13.9375 C 7.160156 -13.9375 7.46875 -14.601562 7.46875 -15.9375 C 7.46875 -16.519531 7.441406 -16.957031 7.390625 -17.25 C 7.335938 -17.539062 7.242188 -17.742188 7.109375 -17.859375 C 6.972656 -17.972656 6.773438 -18.03125 6.515625 -18.03125 L 5.484375 -18.03125 L 5.484375 -13.9375 Z M 6.546875 -13.9375 "/></g></g></g><g fill="#764657" fill-opacity="1"><g transform="translate(192.260288, 237.326996)"><g><path d="M 0.390625 0 L 2.53125 -22.125 L 10.015625 -22.125 L 12.125 0 L 7.9375 0 L 7.625 -3.578125 L 4.9375 -3.578125 L 4.6875 0 Z M 5.28125 -7.109375 L 7.28125 -7.109375 L 6.3125 -18.359375 L 6.109375 -18.359375 Z M 5.28125 -7.109375 "/></g></g></g><g fill="#764657" fill-opacity="1"><g transform="translate(208.094767, 237.326996)"><g><path d="M 0.984375 -22.125 L 6.984375 -22.125 C 8.597656 -22.125 9.769531 -21.726562 10.5 -20.9375 C 11.226562 -20.144531 11.59375 -18.859375 11.59375 -17.078125 L 11.59375 -16.09375 C 11.59375 -13.976562 10.835938 -12.71875 9.328125 -12.3125 C 10.253906 -12.070312 10.90625 -11.515625 11.28125 -10.640625 C 11.65625 -9.765625 11.84375 -8.601562 11.84375 -7.15625 C 11.84375 -4.800781 11.488281 -3.019531 10.78125 -1.8125 C 10.082031 -0.601562 8.816406 0 6.984375 0 L 0.984375 0 Z M 6.203125 -13.796875 C 6.578125 -13.796875 6.832031 -13.9375 6.96875 -14.21875 C 7.113281 -14.507812 7.1875 -14.910156 7.1875 -15.421875 L 7.1875 -17.640625 C 7.1875 -18.359375 6.867188 -18.71875 6.234375 -18.71875 L 5.296875 -18.71875 L 5.296875 -13.796875 Z M 5.75 -3.890625 C 6.894531 -3.890625 7.46875 -4.4375 7.46875 -5.53125 L 7.46875 -8.296875 C 7.46875 -8.960938 7.367188 -9.46875 7.171875 -9.8125 C 6.972656 -10.15625 6.625 -10.328125 6.125 -10.328125 L 5.296875 -10.328125 L 5.296875 -3.90625 Z M 5.75 -3.890625 "/></g></g></g><g fill="#764657" fill-opacity="1"><g transform="translate(223.774774, 237.326996)"><g><path d="M 6.25 0.203125 C 4.46875 0.203125 3.113281 -0.335938 2.1875 -1.421875 C 1.257812 -2.515625 0.796875 -4.050781 0.796875 -6.03125 L 0.796875 -16.5625 C 0.796875 -18.46875 1.257812 -19.90625 2.1875 -20.875 C 3.113281 -21.84375 4.46875 -22.328125 6.25 -22.328125 C 8.039062 -22.328125 9.398438 -21.84375 10.328125 -20.875 C 11.253906 -19.90625 11.71875 -18.46875 11.71875 -16.5625 L 11.71875 -6.03125 C 11.71875 -4.03125 11.253906 -2.488281 10.328125 -1.40625 C 9.398438 -0.332031 8.039062 0.203125 6.25 0.203125 Z M 6.25 -3.859375 C 6.644531 -3.859375 6.910156 -4.03125 7.046875 -4.375 C 7.191406 -4.71875 7.265625 -5.195312 7.265625 -5.8125 L 7.265625 -16.640625 C 7.265625 -17.117188 7.195312 -17.503906 7.0625 -17.796875 C 6.9375 -18.097656 6.675781 -18.25 6.28125 -18.25 C 5.539062 -18.25 5.171875 -17.691406 5.171875 -16.578125 L 5.171875 -5.796875 C 5.171875 -5.160156 5.25 -4.675781 5.40625 -4.34375 C 5.5625 -4.019531 5.84375 -3.859375 6.25 -3.859375 Z M 6.25 -3.859375 "/></g></g></g><g fill="#764657" fill-opacity="1"><g transform="translate(239.635002, 237.326996)"><g><path d="M 0.984375 -22.125 L 6.984375 -22.125 C 8.597656 -22.125 9.769531 -21.726562 10.5 -20.9375 C 11.226562 -20.144531 11.59375 -18.859375 11.59375 -17.078125 L 11.59375 -16.09375 C 11.59375 -13.976562 10.835938 -12.71875 9.328125 -12.3125 C 10.253906 -12.070312 10.90625 -11.515625 11.28125 -10.640625 C 11.65625 -9.765625 11.84375 -8.601562 11.84375 -7.15625 C 11.84375 -4.800781 11.488281 -3.019531 10.78125 -1.8125 C 10.082031 -0.601562 8.816406 0 6.984375 0 L 0.984375 0 Z M 6.203125 -13.796875 C 6.578125 -13.796875 6.832031 -13.9375 6.96875 -14.21875 C 7.113281 -14.507812 7.1875 -14.910156 7.1875 -15.421875 L 7.1875 -17.640625 C 7.1875 -18.359375 6.867188 -18.71875 6.234375 -18.71875 L 5.296875 -18.71875 L 5.296875 -13.796875 Z M 5.75 -3.890625 C 6.894531 -3.890625 7.46875 -4.4375 7.46875 -5.53125 L 7.46875 -8.296875 C 7.46875 -8.960938 7.367188 -9.46875 7.171875 -9.8125 C 6.972656 -10.15625 6.625 -10.328125 6.125 -10.328125 L 5.296875 -10.328125 L 5.296875 -3.90625 Z M 5.75 -3.890625 "/></g></g></g><g fill="#764657" fill-opacity="1"><g transform="translate(255.315009, 237.326996)"><g><path d="M 0.390625 0 L 2.53125 -22.125 L 10.015625 -22.125 L 12.125 0 L 7.9375 0 L 7.625 -3.578125 L 4.9375 -3.578125 L 4.6875 0 Z M 5.28125 -7.109375 L 7.28125 -7.109375 L 6.3125 -18.359375 L 6.109375 -18.359375 Z M 5.28125 -7.109375 "/></g></g></g></svg>