<svg xmlns="http://www.w3.org/2000/svg" xmlns:xlink="http://www.w3.org/1999/xlink" width="500" zoomAndPan="magnify" viewBox="0 0 375 374.999991" height="500" preserveAspectRatio="xMidYMid meet" version="1.0"><rect x="-37.5" width="450" fill="#ffffff" y="-37.499999" height="449.999989" fill-opacity="1"/><rect x="-37.5" width="450" fill="#f1e5e1" y="-37.499999" height="449.999989" fill-opacity="1"/><path fill="#d87678" d="M 226.714844 196.75 L 219.132812 130.074219 C 218.820312 127.457031 216.617188 125.480469 213.980469 125.480469 L 205.566406 125.480469 L 205.566406 121.203125 C 205.566406 111.210938 197.425781 103.070312 187.433594 103.070312 C 177.441406 103.070312 169.300781 111.210938 169.300781 121.203125 L 169.300781 125.480469 L 160.886719 125.480469 C 158.25 125.480469 156.027344 127.457031 155.738281 130.074219 L 153.742188 147.5625 C 156.859375 148.082031 159.847656 149.578125 162.21875 151.925781 L 164.542969 154.25 L 166.871094 151.925781 C 172.355469 146.441406 181.367188 145.628906 187.121094 150.824219 C 193.269531 156.347656 193.457031 165.800781 187.703125 171.574219 C 187.703125 171.574219 170.109375 189.167969 169.613281 189.667969 C 166.808594 192.472656 162.28125 192.472656 159.496094 189.667969 C 155.964844 186.136719 152.972656 183.144531 150.023438 180.195312 L 148.132812 196.75 C 147.78125 199.949219 150.273438 202.730469 153.472656 202.730469 L 221.375 202.730469 C 224.59375 202.730469 227.085938 199.949219 226.714844 196.75 Z M 171.605469 135.535156 C 170.339844 135.535156 169.300781 134.496094 169.300781 133.210938 C 169.300781 131.941406 170.339844 130.902344 171.605469 130.902344 C 172.894531 130.902344 173.933594 131.941406 173.933594 133.210938 C 173.933594 134.496094 172.894531 135.535156 171.605469 135.535156 Z M 173.933594 125.480469 L 173.933594 121.203125 C 173.933594 113.765625 179.976562 107.703125 187.433594 107.703125 C 194.871094 107.703125 200.9375 113.765625 200.9375 121.203125 L 200.9375 125.480469 Z M 203.242188 135.535156 C 201.972656 135.535156 200.9375 134.496094 200.9375 133.210938 C 200.9375 131.941406 201.972656 130.902344 203.242188 130.902344 C 204.527344 130.902344 205.566406 131.941406 205.566406 133.210938 C 205.566406 134.496094 204.527344 135.535156 203.242188 135.535156 Z M 203.242188 135.535156 " fill-opacity="1" fill-rule="nonzero"/></svg>