<svg xmlns="http://www.w3.org/2000/svg" xmlns:xlink="http://www.w3.org/1999/xlink" width="500" zoomAndPan="magnify" viewBox="0 0 375 374.999991" height="500" preserveAspectRatio="xMidYMid meet" version="1.0"><defs><g/></defs><rect x="-37.5" width="450" fill="#ffffff" y="-37.499999" height="449.999989" fill-opacity="1"/><rect x="-37.5" width="450" fill="#f1e5e1" y="-37.499999" height="449.999989" fill-opacity="1"/><path fill="#d87678" d="M 226.714844 196.75 L 219.132812 130.074219 C 218.820312 127.457031 216.617188 125.480469 213.980469 125.480469 L 205.566406 125.480469 L 205.566406 121.203125 C 205.566406 111.210938 197.425781 103.070312 187.433594 103.070312 C 177.441406 103.070312 169.300781 111.210938 169.300781 121.203125 L 169.300781 125.480469 L 160.886719 125.480469 C 158.25 125.480469 156.027344 127.457031 155.738281 130.074219 L 153.742188 147.5625 C 156.859375 148.082031 159.847656 149.578125 162.21875 151.925781 L 164.542969 154.25 L 166.871094 151.925781 C 172.355469 146.441406 181.367188 145.628906 187.121094 150.824219 C 193.269531 156.347656 193.457031 165.800781 187.703125 171.574219 C 187.703125 171.574219 170.109375 189.167969 169.613281 189.667969 C 166.808594 192.472656 162.28125 192.472656 159.496094 189.667969 C 155.964844 186.136719 152.972656 183.144531 150.023438 180.195312 L 148.132812 196.75 C 147.78125 199.949219 150.273438 202.730469 153.472656 202.730469 L 221.375 202.730469 C 224.59375 202.730469 227.085938 199.949219 226.714844 196.75 Z M 171.605469 135.535156 C 170.339844 135.535156 169.300781 134.496094 169.300781 133.210938 C 169.300781 131.941406 170.339844 130.902344 171.605469 130.902344 C 172.894531 130.902344 173.933594 131.941406 173.933594 133.210938 C 173.933594 134.496094 172.894531 135.535156 171.605469 135.535156 Z M 173.933594 125.480469 L 173.933594 121.203125 C 173.933594 113.765625 179.976562 107.703125 187.433594 107.703125 C 194.871094 107.703125 200.9375 113.765625 200.9375 121.203125 L 200.9375 125.480469 Z M 203.242188 135.535156 C 201.972656 135.535156 200.9375 134.496094 200.9375 133.210938 C 200.9375 131.941406 201.972656 130.902344 203.242188 130.902344 C 204.527344 130.902344 205.566406 131.941406 205.566406 133.210938 C 205.566406 134.496094 204.527344 135.535156 203.242188 135.535156 Z M 203.242188 135.535156 " fill-opacity="1" fill-rule="nonzero"/><g fill="#764657" fill-opacity="1"><g transform="translate(107.16625, 237.326982)"><g><path d="M 6.125 0.203125 C 4.507812 0.203125 3.21875 -0.300781 2.25 -1.3125 C 1.28125 -2.320312 0.796875 -3.710938 0.796875 -5.484375 L 0.796875 -15.6875 C 0.796875 -17.882812 1.234375 -19.539062 2.109375 -20.65625 C 2.984375 -21.769531 4.359375 -22.328125 6.234375 -22.328125 C 7.859375 -22.328125 9.171875 -21.878906 10.171875 -20.984375 C 11.171875 -20.085938 11.671875 -18.800781 11.671875 -17.125 L 11.671875 -13.3125 L 7.265625 -13.3125 L 7.265625 -16.578125 C 7.265625 -17.210938 7.1875 -17.648438 7.03125 -17.890625 C 6.875 -18.128906 6.609375 -18.25 6.234375 -18.25 C 5.835938 -18.25 5.566406 -18.113281 5.421875 -17.84375 C 5.273438 -17.570312 5.203125 -17.171875 5.203125 -16.640625 L 5.203125 -5.53125 C 5.203125 -4.945312 5.285156 -4.519531 5.453125 -4.25 C 5.628906 -3.988281 5.890625 -3.859375 6.234375 -3.859375 C 6.921875 -3.859375 7.265625 -4.414062 7.265625 -5.53125 L 7.265625 -9.53125 L 11.71875 -9.53125 L 11.71875 -5.359375 C 11.71875 -1.648438 9.851562 0.203125 6.125 0.203125 Z M 6.125 0.203125 "/></g></g></g><g fill="#764657" fill-opacity="1"><g transform="translate(122.717525, 237.326982)"><g><path d="M 6.25 0.203125 C 4.46875 0.203125 3.113281 -0.335938 2.1875 -1.421875 C 1.257812 -2.515625 0.796875 -4.050781 0.796875 -6.03125 L 0.796875 -16.5625 C 0.796875 -18.46875 1.257812 -19.90625 2.1875 -20.875 C 3.113281 -21.84375 4.46875 -22.328125 6.25 -22.328125 C 8.039062 -22.328125 9.398438 -21.84375 10.328125 -20.875 C 11.253906 -19.90625 11.71875 -18.46875 11.71875 -16.5625 L 11.71875 -6.03125 C 11.71875 -4.03125 11.253906 -2.488281 10.328125 -1.40625 C 9.398438 -0.332031 8.039062 0.203125 6.25 0.203125 Z M 6.25 -3.859375 C 6.644531 -3.859375 6.910156 -4.03125 7.046875 -4.375 C 7.191406 -4.71875 7.265625 -5.195312 7.265625 -5.8125 L 7.265625 -16.640625 C 7.265625 -17.117188 7.195312 -17.503906 7.0625 -17.796875 C 6.9375 -18.097656 6.675781 -18.25 6.28125 -18.25 C 5.539062 -18.25 5.171875 -17.691406 5.171875 -16.578125 L 5.171875 -5.796875 C 5.171875 -5.160156 5.25 -4.675781 5.40625 -4.34375 C 5.5625 -4.019531 5.84375 -3.859375 6.25 -3.859375 Z M 6.25 -3.859375 "/></g></g></g><g fill="#764657" fill-opacity="1"><g transform="translate(138.577756, 237.326982)"><g><path d="M 0.984375 0 L 0.984375 -22.125 L 7.71875 -22.125 L 9.578125 -8.625 L 11.4375 -22.125 L 18.234375 -22.125 L 18.234375 0 L 14.1875 0 L 14.1875 -15.9375 L 11.640625 0 L 7.671875 0 L 4.96875 -15.9375 L 4.96875 0 Z M 0.984375 0 "/></g></g></g><g fill="#764657" fill-opacity="1"><g transform="translate(161.131994, 237.326982)"><g><path d="M 0.984375 -22.125 L 6.828125 -22.125 C 8.585938 -22.125 9.84375 -21.550781 10.59375 -20.40625 C 11.351562 -19.257812 11.734375 -17.59375 11.734375 -15.40625 C 11.734375 -13.207031 11.398438 -11.546875 10.734375 -10.421875 C 10.066406 -9.304688 8.863281 -8.75 7.125 -8.75 L 5.328125 -8.75 L 5.328125 0 L 0.984375 0 Z M 5.59375 -12.75 C 6.125 -12.75 6.507812 -12.847656 6.75 -13.046875 C 7 -13.242188 7.160156 -13.523438 7.234375 -13.890625 C 7.316406 -14.265625 7.359375 -14.789062 7.359375 -15.46875 C 7.359375 -16.394531 7.253906 -17.066406 7.046875 -17.484375 C 6.847656 -17.898438 6.4375 -18.109375 5.8125 -18.109375 L 5.328125 -18.109375 L 5.328125 -12.75 Z M 5.59375 -12.75 "/></g></g></g><g fill="#764657" fill-opacity="1"><g transform="translate(176.631779, 237.326982)"><g><path d="M 0.984375 -22.125 L 7.78125 -22.125 C 8.863281 -22.125 9.695312 -21.878906 10.28125 -21.390625 C 10.875 -20.898438 11.273438 -20.210938 11.484375 -19.328125 C 11.691406 -18.441406 11.796875 -17.3125 11.796875 -15.9375 C 11.796875 -14.6875 11.628906 -13.707031 11.296875 -13 C 10.972656 -12.300781 10.410156 -11.8125 9.609375 -11.53125 C 10.273438 -11.394531 10.757812 -11.0625 11.0625 -10.53125 C 11.363281 -10 11.515625 -9.28125 11.515625 -8.375 L 11.453125 0 L 7.125 0 L 7.125 -8.65625 C 7.125 -9.269531 7.003906 -9.660156 6.765625 -9.828125 C 6.523438 -10.003906 6.085938 -10.09375 5.453125 -10.09375 L 5.453125 0 L 0.984375 0 Z M 6.546875 -13.9375 C 7.160156 -13.9375 7.46875 -14.601562 7.46875 -15.9375 C 7.46875 -16.519531 7.441406 -16.957031 7.390625 -17.25 C 7.335938 -17.539062 7.242188 -17.742188 7.109375 -17.859375 C 6.972656 -17.972656 6.773438 -18.03125 6.515625 -18.03125 L 5.484375 -18.03125 L 5.484375 -13.9375 Z M 6.546875 -13.9375 "/></g></g></g><g fill="#764657" fill-opacity="1"><g transform="translate(192.260288, 237.326982)"><g><path d="M 0.390625 0 L 2.53125 -22.125 L 10.015625 -22.125 L 12.125 0 L 7.9375 0 L 7.625 -3.578125 L 4.9375 -3.578125 L 4.6875 0 Z M 5.28125 -7.109375 L 7.28125 -7.109375 L 6.3125 -18.359375 L 6.109375 -18.359375 Z M 5.28125 -7.109375 "/></g></g></g><g fill="#764657" fill-opacity="1"><g transform="translate(208.094767, 237.326982)"><g><path d="M 0.984375 -22.125 L 6.984375 -22.125 C 8.597656 -22.125 9.769531 -21.726562 10.5 -20.9375 C 11.226562 -20.144531 11.59375 -18.859375 11.59375 -17.078125 L 11.59375 -16.09375 C 11.59375 -13.976562 10.835938 -12.71875 9.328125 -12.3125 C 10.253906 -12.070312 10.90625 -11.515625 11.28125 -10.640625 C 11.65625 -9.765625 11.84375 -8.601562 11.84375 -7.15625 C 11.84375 -4.800781 11.488281 -3.019531 10.78125 -1.8125 C 10.082031 -0.601562 8.816406 0 6.984375 0 L 0.984375 0 Z M 6.203125 -13.796875 C 6.578125 -13.796875 6.832031 -13.9375 6.96875 -14.21875 C 7.113281 -14.507812 7.1875 -14.910156 7.1875 -15.421875 L 7.1875 -17.640625 C 7.1875 -18.359375 6.867188 -18.71875 6.234375 -18.71875 L 5.296875 -18.71875 L 5.296875 -13.796875 Z M 5.75 -3.890625 C 6.894531 -3.890625 7.46875 -4.4375 7.46875 -5.53125 L 7.46875 -8.296875 C 7.46875 -8.960938 7.367188 -9.46875 7.171875 -9.8125 C 6.972656 -10.15625 6.625 -10.328125 6.125 -10.328125 L 5.296875 -10.328125 L 5.296875 -3.90625 Z M 5.75 -3.890625 "/></g></g></g><g fill="#764657" fill-opacity="1"><g transform="translate(223.774774, 237.326982)"><g><path d="M 6.25 0.203125 C 4.46875 0.203125 3.113281 -0.335938 2.1875 -1.421875 C 1.257812 -2.515625 0.796875 -4.050781 0.796875 -6.03125 L 0.796875 -16.5625 C 0.796875 -18.46875 1.257812 -19.90625 2.1875 -20.875 C 3.113281 -21.84375 4.46875 -22.328125 6.25 -22.328125 C 8.039062 -22.328125 9.398438 -21.84375 10.328125 -20.875 C 11.253906 -19.90625 11.71875 -18.46875 11.71875 -16.5625 L 11.71875 -6.03125 C 11.71875 -4.03125 11.253906 -2.488281 10.328125 -1.40625 C 9.398438 -0.332031 8.039062 0.203125 6.25 0.203125 Z M 6.25 -3.859375 C 6.644531 -3.859375 6.910156 -4.03125 7.046875 -4.375 C 7.191406 -4.71875 7.265625 -5.195312 7.265625 -5.8125 L 7.265625 -16.640625 C 7.265625 -17.117188 7.195312 -17.503906 7.0625 -17.796875 C 6.9375 -18.097656 6.675781 -18.25 6.28125 -18.25 C 5.539062 -18.25 5.171875 -17.691406 5.171875 -16.578125 L 5.171875 -5.796875 C 5.171875 -5.160156 5.25 -4.675781 5.40625 -4.34375 C 5.5625 -4.019531 5.84375 -3.859375 6.25 -3.859375 Z M 6.25 -3.859375 "/></g></g></g><g fill="#764657" fill-opacity="1"><g transform="translate(239.635002, 237.326982)"><g><path d="M 0.984375 -22.125 L 6.984375 -22.125 C 8.597656 -22.125 9.769531 -21.726562 10.5 -20.9375 C 11.226562 -20.144531 11.59375 -18.859375 11.59375 -17.078125 L 11.59375 -16.09375 C 11.59375 -13.976562 10.835938 -12.71875 9.328125 -12.3125 C 10.253906 -12.070312 10.90625 -11.515625 11.28125 -10.640625 C 11.65625 -9.765625 11.84375 -8.601562 11.84375 -7.15625 C 11.84375 -4.800781 11.488281 -3.019531 10.78125 -1.8125 C 10.082031 -0.601562 8.816406 0 6.984375 0 L 0.984375 0 Z M 6.203125 -13.796875 C 6.578125 -13.796875 6.832031 -13.9375 6.96875 -14.21875 C 7.113281 -14.507812 7.1875 -14.910156 7.1875 -15.421875 L 7.1875 -17.640625 C 7.1875 -18.359375 6.867188 -18.71875 6.234375 -18.71875 L 5.296875 -18.71875 L 5.296875 -13.796875 Z M 5.75 -3.890625 C 6.894531 -3.890625 7.46875 -4.4375 7.46875 -5.53125 L 7.46875 -8.296875 C 7.46875 -8.960938 7.367188 -9.46875 7.171875 -9.8125 C 6.972656 -10.15625 6.625 -10.328125 6.125 -10.328125 L 5.296875 -10.328125 L 5.296875 -3.90625 Z M 5.75 -3.890625 "/></g></g></g><g fill="#764657" fill-opacity="1"><g transform="translate(255.315009, 237.326982)"><g><path d="M 0.390625 0 L 2.53125 -22.125 L 10.015625 -22.125 L 12.125 0 L 7.9375 0 L 7.625 -3.578125 L 4.9375 -3.578125 L 4.6875 0 Z M 5.28125 -7.109375 L 7.28125 -7.109375 L 6.3125 -18.359375 L 6.109375 -18.359375 Z M 5.28125 -7.109375 "/></g></g></g><g fill="#bb95a2" fill-opacity="1"><g transform="translate(104.529922, 267.031242)"><g><path d="M 3.40625 0.109375 C 2.300781 0.109375 1.503906 -0.160156 1.015625 -0.703125 C 0.535156 -1.242188 0.296875 -2.117188 0.296875 -3.328125 L 0.296875 -4.515625 L 2.671875 -4.515625 L 2.671875 -3.015625 C 2.671875 -2.410156 2.863281 -2.109375 3.25 -2.109375 C 3.46875 -2.109375 3.617188 -2.171875 3.703125 -2.296875 C 3.785156 -2.421875 3.828125 -2.632812 3.828125 -2.9375 C 3.828125 -3.332031 3.78125 -3.65625 3.6875 -3.90625 C 3.59375 -4.164062 3.472656 -4.382812 3.328125 -4.5625 C 3.179688 -4.738281 2.921875 -5.007812 2.546875 -5.375 L 1.5 -6.40625 C 0.695312 -7.195312 0.296875 -8.070312 0.296875 -9.03125 C 0.296875 -10.0625 0.53125 -10.84375 1 -11.375 C 1.476562 -11.914062 2.171875 -12.1875 3.078125 -12.1875 C 4.160156 -12.1875 4.941406 -11.898438 5.421875 -11.328125 C 5.898438 -10.753906 6.140625 -9.851562 6.140625 -8.625 L 3.6875 -8.625 L 3.671875 -9.453125 C 3.671875 -9.609375 3.625 -9.734375 3.53125 -9.828125 C 3.445312 -9.921875 3.320312 -9.96875 3.15625 -9.96875 C 2.96875 -9.96875 2.828125 -9.914062 2.734375 -9.8125 C 2.640625 -9.707031 2.59375 -9.566406 2.59375 -9.390625 C 2.59375 -8.992188 2.820312 -8.585938 3.28125 -8.171875 L 4.6875 -6.8125 C 5.007812 -6.5 5.28125 -6.195312 5.5 -5.90625 C 5.71875 -5.625 5.890625 -5.285156 6.015625 -4.890625 C 6.148438 -4.503906 6.21875 -4.046875 6.21875 -3.515625 C 6.21875 -2.328125 6 -1.425781 5.5625 -0.8125 C 5.125 -0.195312 4.40625 0.109375 3.40625 0.109375 Z M 3.40625 0.109375 "/></g></g></g><g fill="#bb95a2" fill-opacity="1"><g transform="translate(113.622424, 267.031242)"><g><path d="M 3.328125 0.109375 C 2.335938 0.109375 1.597656 -0.171875 1.109375 -0.734375 C 0.628906 -1.296875 0.390625 -2.128906 0.390625 -3.234375 L 0.390625 -12.078125 L 2.734375 -12.078125 L 2.734375 -3.328125 C 2.734375 -2.941406 2.769531 -2.640625 2.84375 -2.421875 C 2.925781 -2.210938 3.085938 -2.109375 3.328125 -2.109375 C 3.578125 -2.109375 3.738281 -2.210938 3.8125 -2.421875 C 3.882812 -2.628906 3.921875 -2.929688 3.921875 -3.328125 L 3.921875 -12.078125 L 6.265625 -12.078125 L 6.265625 -3.234375 C 6.265625 -2.128906 6.023438 -1.296875 5.546875 -0.734375 C 5.066406 -0.171875 4.328125 0.109375 3.328125 0.109375 Z M 3.328125 0.109375 "/></g></g></g><g fill="#bb95a2" fill-opacity="1"><g transform="translate(122.897586, 267.031242)"><g><path d="M 0.203125 0 L 1.375 -12.078125 L 5.46875 -12.078125 L 6.625 0 L 4.328125 0 L 4.15625 -1.953125 L 2.703125 -1.953125 L 2.5625 0 Z M 2.875 -3.875 L 3.984375 -3.875 L 3.4375 -10.03125 L 3.328125 -10.03125 Z M 2.875 -3.875 "/></g></g></g><g fill="#bb95a2" fill-opacity="1"><g transform="translate(132.327313, 267.031242)"><g/></g></g><g fill="#bb95a2" fill-opacity="1"><g transform="translate(138.230278, 267.031242)"><g><path d="M 0.53125 0 L 0.53125 -12.078125 L 2.953125 -12.078125 L 2.953125 -2.046875 L 5.4375 -2.046875 L 5.4375 0 Z M 0.53125 0 "/></g></g></g><g fill="#bb95a2" fill-opacity="1"><g transform="translate(146.423526, 267.031242)"><g><path d="M 0.421875 0 L 0.421875 -12.078125 L 2.75 -12.078125 L 2.75 0 Z M 0.421875 0 "/></g></g></g><g fill="#bb95a2" fill-opacity="1"><g transform="translate(152.228129, 267.031242)"><g><path d="M 3.40625 0.109375 C 2.300781 0.109375 1.503906 -0.160156 1.015625 -0.703125 C 0.535156 -1.242188 0.296875 -2.117188 0.296875 -3.328125 L 0.296875 -4.515625 L 2.671875 -4.515625 L 2.671875 -3.015625 C 2.671875 -2.410156 2.863281 -2.109375 3.25 -2.109375 C 3.46875 -2.109375 3.617188 -2.171875 3.703125 -2.296875 C 3.785156 -2.421875 3.828125 -2.632812 3.828125 -2.9375 C 3.828125 -3.332031 3.78125 -3.65625 3.6875 -3.90625 C 3.59375 -4.164062 3.472656 -4.382812 3.328125 -4.5625 C 3.179688 -4.738281 2.921875 -5.007812 2.546875 -5.375 L 1.5 -6.40625 C 0.695312 -7.195312 0.296875 -8.070312 0.296875 -9.03125 C 0.296875 -10.0625 0.53125 -10.84375 1 -11.375 C 1.476562 -11.914062 2.171875 -12.1875 3.078125 -12.1875 C 4.160156 -12.1875 4.941406 -11.898438 5.421875 -11.328125 C 5.898438 -10.753906 6.140625 -9.851562 6.140625 -8.625 L 3.6875 -8.625 L 3.671875 -9.453125 C 3.671875 -9.609375 3.625 -9.734375 3.53125 -9.828125 C 3.445312 -9.921875 3.320312 -9.96875 3.15625 -9.96875 C 2.96875 -9.96875 2.828125 -9.914062 2.734375 -9.8125 C 2.640625 -9.707031 2.59375 -9.566406 2.59375 -9.390625 C 2.59375 -8.992188 2.820312 -8.585938 3.28125 -8.171875 L 4.6875 -6.8125 C 5.007812 -6.5 5.28125 -6.195312 5.5 -5.90625 C 5.71875 -5.625 5.890625 -5.285156 6.015625 -4.890625 C 6.148438 -4.503906 6.21875 -4.046875 6.21875 -3.515625 C 6.21875 -2.328125 6 -1.425781 5.5625 -0.8125 C 5.125 -0.195312 4.40625 0.109375 3.40625 0.109375 Z M 3.40625 0.109375 "/></g></g></g><g fill="#bb95a2" fill-opacity="1"><g transform="translate(161.320634, 267.031242)"><g><path d="M 1.578125 0 L 1.578125 -9.765625 L 0.140625 -9.765625 L 0.140625 -12.078125 L 5.421875 -12.078125 L 5.421875 -9.765625 L 4 -9.765625 L 4 0 Z M 1.578125 0 "/></g></g></g><g fill="#bb95a2" fill-opacity="1"><g transform="translate(169.499829, 267.031242)"><g><path d="M 0.203125 0 L 1.375 -12.078125 L 5.46875 -12.078125 L 6.625 0 L 4.328125 0 L 4.15625 -1.953125 L 2.703125 -1.953125 L 2.5625 0 Z M 2.875 -3.875 L 3.984375 -3.875 L 3.4375 -10.03125 L 3.328125 -10.03125 Z M 2.875 -3.875 "/></g></g></g><g fill="#bb95a2" fill-opacity="1"><g transform="translate(178.929554, 267.031242)"><g/></g></g><g fill="#bb95a2" fill-opacity="1"><g transform="translate(184.832519, 267.031242)"><g><path d="M 0.53125 -12.078125 L 3.859375 -12.078125 C 4.722656 -12.078125 5.367188 -11.835938 5.796875 -11.359375 C 6.234375 -10.878906 6.457031 -10.171875 6.46875 -9.234375 L 6.5 -3.578125 C 6.507812 -2.390625 6.300781 -1.492188 5.875 -0.890625 C 5.457031 -0.296875 4.757812 0 3.78125 0 L 0.53125 0 Z M 3.390625 -2.140625 C 3.828125 -2.140625 4.046875 -2.351562 4.046875 -2.78125 L 4.046875 -9.015625 C 4.046875 -9.285156 4.023438 -9.488281 3.984375 -9.625 C 3.941406 -9.757812 3.863281 -9.847656 3.75 -9.890625 C 3.632812 -9.941406 3.460938 -9.96875 3.234375 -9.96875 L 2.96875 -9.96875 L 2.96875 -2.140625 Z M 3.390625 -2.140625 "/></g></g></g><g fill="#bb95a2" fill-opacity="1"><g transform="translate(194.374648, 267.031242)"><g><path d="M 0.53125 0 L 0.53125 -12.078125 L 5.375 -12.078125 L 5.375 -9.75 L 3 -9.75 L 3 -7.390625 L 5.265625 -7.390625 L 5.265625 -5.125 L 3 -5.125 L 3 -2.34375 L 5.53125 -2.34375 L 5.53125 0 Z M 0.53125 0 "/></g></g></g><g fill="#bb95a2" fill-opacity="1"><g transform="translate(202.778668, 267.031242)"><g/></g></g><g fill="#bb95a2" fill-opacity="1"><g transform="translate(208.681633, 267.031242)"><g><path d="M 0.53125 -12.078125 L 3.859375 -12.078125 C 4.722656 -12.078125 5.367188 -11.835938 5.796875 -11.359375 C 6.234375 -10.878906 6.457031 -10.171875 6.46875 -9.234375 L 6.5 -3.578125 C 6.507812 -2.390625 6.300781 -1.492188 5.875 -0.890625 C 5.457031 -0.296875 4.757812 0 3.78125 0 L 0.53125 0 Z M 3.390625 -2.140625 C 3.828125 -2.140625 4.046875 -2.351562 4.046875 -2.78125 L 4.046875 -9.015625 C 4.046875 -9.285156 4.023438 -9.488281 3.984375 -9.625 C 3.941406 -9.757812 3.863281 -9.847656 3.75 -9.890625 C 3.632812 -9.941406 3.460938 -9.96875 3.234375 -9.96875 L 2.96875 -9.96875 L 2.96875 -2.140625 Z M 3.390625 -2.140625 "/></g></g></g><g fill="#bb95a2" fill-opacity="1"><g transform="translate(218.223762, 267.031242)"><g><path d="M 0.53125 0 L 0.53125 -12.078125 L 5.375 -12.078125 L 5.375 -9.75 L 3 -9.75 L 3 -7.390625 L 5.265625 -7.390625 L 5.265625 -5.125 L 3 -5.125 L 3 -2.34375 L 5.53125 -2.34375 L 5.53125 0 Z M 0.53125 0 "/></g></g></g><g fill="#bb95a2" fill-opacity="1"><g transform="translate(226.627776, 267.031242)"><g><path d="M 3.40625 0.109375 C 2.300781 0.109375 1.503906 -0.160156 1.015625 -0.703125 C 0.535156 -1.242188 0.296875 -2.117188 0.296875 -3.328125 L 0.296875 -4.515625 L 2.671875 -4.515625 L 2.671875 -3.015625 C 2.671875 -2.410156 2.863281 -2.109375 3.25 -2.109375 C 3.46875 -2.109375 3.617188 -2.171875 3.703125 -2.296875 C 3.785156 -2.421875 3.828125 -2.632812 3.828125 -2.9375 C 3.828125 -3.332031 3.78125 -3.65625 3.6875 -3.90625 C 3.59375 -4.164062 3.472656 -4.382812 3.328125 -4.5625 C 3.179688 -4.738281 2.921875 -5.007812 2.546875 -5.375 L 1.5 -6.40625 C 0.695312 -7.195312 0.296875 -8.070312 0.296875 -9.03125 C 0.296875 -10.0625 0.53125 -10.84375 1 -11.375 C 1.476562 -11.914062 2.171875 -12.1875 3.078125 -12.1875 C 4.160156 -12.1875 4.941406 -11.898438 5.421875 -11.328125 C 5.898438 -10.753906 6.140625 -9.851562 6.140625 -8.625 L 3.6875 -8.625 L 3.671875 -9.453125 C 3.671875 -9.609375 3.625 -9.734375 3.53125 -9.828125 C 3.445312 -9.921875 3.320312 -9.96875 3.15625 -9.96875 C 2.96875 -9.96875 2.828125 -9.914062 2.734375 -9.8125 C 2.640625 -9.707031 2.59375 -9.566406 2.59375 -9.390625 C 2.59375 -8.992188 2.820312 -8.585938 3.28125 -8.171875 L 4.6875 -6.8125 C 5.007812 -6.5 5.28125 -6.195312 5.5 -5.90625 C 5.71875 -5.625 5.890625 -5.285156 6.015625 -4.890625 C 6.148438 -4.503906 6.21875 -4.046875 6.21875 -3.515625 C 6.21875 -2.328125 6 -1.425781 5.5625 -0.8125 C 5.125 -0.195312 4.40625 0.109375 3.40625 0.109375 Z M 3.40625 0.109375 "/></g></g></g><g fill="#bb95a2" fill-opacity="1"><g transform="translate(235.720278, 267.031242)"><g><path d="M 0.53125 0 L 0.53125 -12.078125 L 5.375 -12.078125 L 5.375 -9.75 L 3 -9.75 L 3 -7.390625 L 5.265625 -7.390625 L 5.265625 -5.125 L 3 -5.125 L 3 -2.34375 L 5.53125 -2.34375 L 5.53125 0 Z M 0.53125 0 "/></g></g></g><g fill="#bb95a2" fill-opacity="1"><g transform="translate(244.124292, 267.031242)"><g><path d="M 3.21875 0.109375 C 2.664062 0.109375 2.164062 0.00390625 1.71875 -0.203125 C 1.269531 -0.421875 0.914062 -0.738281 0.65625 -1.15625 C 0.394531 -1.570312 0.265625 -2.078125 0.265625 -2.671875 L 0.265625 -5.6875 L 2.640625 -5.6875 L 2.640625 -2.8125 C 2.640625 -2.59375 2.679688 -2.421875 2.765625 -2.296875 C 2.859375 -2.171875 3 -2.109375 3.1875 -2.109375 C 3.363281 -2.109375 3.492188 -2.164062 3.578125 -2.28125 C 3.671875 -2.394531 3.71875 -2.5625 3.71875 -2.78125 L 3.71875 -12.078125 L 6.15625 -12.078125 L 6.15625 -3.015625 C 6.15625 -2.390625 6.03125 -1.835938 5.78125 -1.359375 C 5.53125 -0.890625 5.179688 -0.523438 4.734375 -0.265625 C 4.296875 -0.015625 3.789062 0.109375 3.21875 0.109375 Z M 3.21875 0.109375 "/></g></g></g><g fill="#bb95a2" fill-opacity="1"><g transform="translate(253.287049, 267.031242)"><g><path d="M 3.421875 0.109375 C 2.441406 0.109375 1.695312 -0.1875 1.1875 -0.78125 C 0.6875 -1.375 0.4375 -2.210938 0.4375 -3.296875 L 0.4375 -9.046875 C 0.4375 -10.085938 0.6875 -10.867188 1.1875 -11.390625 C 1.695312 -11.921875 2.441406 -12.1875 3.421875 -12.1875 C 4.390625 -12.1875 5.125 -11.921875 5.625 -11.390625 C 6.132812 -10.867188 6.390625 -10.085938 6.390625 -9.046875 L 6.390625 -3.296875 C 6.390625 -2.203125 6.132812 -1.359375 5.625 -0.765625 C 5.125 -0.179688 4.390625 0.109375 3.421875 0.109375 Z M 3.421875 -2.109375 C 3.628906 -2.109375 3.769531 -2.203125 3.84375 -2.390625 C 3.925781 -2.578125 3.96875 -2.835938 3.96875 -3.171875 L 3.96875 -9.078125 C 3.96875 -9.347656 3.929688 -9.5625 3.859375 -9.71875 C 3.785156 -9.882812 3.644531 -9.96875 3.4375 -9.96875 C 3.03125 -9.96875 2.828125 -9.664062 2.828125 -9.0625 L 2.828125 -3.15625 C 2.828125 -2.8125 2.867188 -2.550781 2.953125 -2.375 C 3.035156 -2.195312 3.191406 -2.109375 3.421875 -2.109375 Z M 3.421875 -2.109375 "/></g></g></g><g fill="#bb95a2" fill-opacity="1"><g transform="translate(262.730827, 267.031242)"><g><path d="M 3.40625 0.109375 C 2.300781 0.109375 1.503906 -0.160156 1.015625 -0.703125 C 0.535156 -1.242188 0.296875 -2.117188 0.296875 -3.328125 L 0.296875 -4.515625 L 2.671875 -4.515625 L 2.671875 -3.015625 C 2.671875 -2.410156 2.863281 -2.109375 3.25 -2.109375 C 3.46875 -2.109375 3.617188 -2.171875 3.703125 -2.296875 C 3.785156 -2.421875 3.828125 -2.632812 3.828125 -2.9375 C 3.828125 -3.332031 3.78125 -3.65625 3.6875 -3.90625 C 3.59375 -4.164062 3.472656 -4.382812 3.328125 -4.5625 C 3.179688 -4.738281 2.921875 -5.007812 2.546875 -5.375 L 1.5 -6.40625 C 0.695312 -7.195312 0.296875 -8.070312 0.296875 -9.03125 C 0.296875 -10.0625 0.53125 -10.84375 1 -11.375 C 1.476562 -11.914062 2.171875 -12.1875 3.078125 -12.1875 C 4.160156 -12.1875 4.941406 -11.898438 5.421875 -11.328125 C 5.898438 -10.753906 6.140625 -9.851562 6.140625 -8.625 L 3.6875 -8.625 L 3.671875 -9.453125 C 3.671875 -9.609375 3.625 -9.734375 3.53125 -9.828125 C 3.445312 -9.921875 3.320312 -9.96875 3.15625 -9.96875 C 2.96875 -9.96875 2.828125 -9.914062 2.734375 -9.8125 C 2.640625 -9.707031 2.59375 -9.566406 2.59375 -9.390625 C 2.59375 -8.992188 2.820312 -8.585938 3.28125 -8.171875 L 4.6875 -6.8125 C 5.007812 -6.5 5.28125 -6.195312 5.5 -5.90625 C 5.71875 -5.625 5.890625 -5.285156 6.015625 -4.890625 C 6.148438 -4.503906 6.21875 -4.046875 6.21875 -3.515625 C 6.21875 -2.328125 6 -1.425781 5.5625 -0.8125 C 5.125 -0.195312 4.40625 0.109375 3.40625 0.109375 Z M 3.40625 0.109375 "/></g></g></g><path stroke-linecap="butt" transform="matrix(0.75, 0, 0, 0.75, 103.908571, 254.409886)" fill="none" stroke-linejoin="miter" d="M 4.533364 16.151403 C 3.07503 16.151403 2.017738 15.792028 1.366697 15.06807 C 0.720863 14.338903 0.392738 13.172237 0.392738 11.557653 L 0.392738 9.984736 L 3.559405 9.984736 L 3.559405 11.989945 C 3.559405 12.792028 3.814614 13.19307 4.330239 13.19307 C 4.616697 13.19307 4.814614 13.104528 4.929197 12.937862 C 5.038572 12.765987 5.095864 12.484737 5.095864 12.083695 C 5.095864 11.557653 5.033364 11.125361 4.908364 10.78682 C 4.783364 10.437861 4.621905 10.151403 4.429197 9.917028 C 4.236489 9.687861 3.892739 9.328486 3.392739 8.838903 L 2.002113 7.453486 C 0.929197 6.406611 0.392738 5.239944 0.392738 3.969111 C 0.392738 2.594111 0.710447 1.552444 1.340655 0.833694 C 1.970863 0.114944 2.892738 -0.244431 4.10628 -0.244431 C 5.554197 -0.244431 6.595864 0.135777 7.23128 0.906611 C 7.871905 1.677444 8.189614 2.875361 8.189614 4.510778 L 4.908364 4.510778 L 4.892739 3.406611 C 4.892739 3.193069 4.830239 3.026403 4.710447 2.901403 C 4.595864 2.776403 4.429197 2.713903 4.220864 2.713903 C 3.965655 2.713903 3.778155 2.781611 3.653155 2.917028 C 3.528155 3.057653 3.465655 3.245153 3.465655 3.484736 C 3.465655 4.005569 3.767739 4.547236 4.366697 5.109736 L 6.241697 6.906611 C 6.679197 7.333695 7.038572 7.739945 7.32503 8.120153 C 7.616697 8.500361 7.845864 8.953486 8.017739 9.469111 C 8.194822 9.989945 8.283364 10.604528 8.283364 11.312861 C 8.283364 12.901403 7.991697 14.104528 7.413572 14.922237 C 6.830239 15.739945 5.871905 16.151403 4.533364 16.151403 Z M 16.564614 16.151403 C 15.241698 16.151403 14.257323 15.776403 13.616698 15.026403 C 12.970864 14.276403 12.647947 13.16182 12.647947 11.687862 L 12.647947 -0.0933893 L 15.778156 -0.0933893 L 15.778156 11.557653 C 15.778156 12.06807 15.830239 12.469112 15.923989 12.760778 C 16.028156 13.047237 16.241698 13.19307 16.564614 13.19307 C 16.887531 13.19307 17.101073 13.052445 17.200031 12.771195 C 17.304198 12.484737 17.351073 12.083695 17.351073 11.557653 L 17.351073 -0.0933893 L 20.481281 -0.0933893 L 20.481281 11.687862 C 20.481281 13.16182 20.158365 14.276403 19.51774 15.026403 C 18.871906 15.776403 17.887531 16.151403 16.564614 16.151403 Z M 24.76774 16.000362 L 26.325032 -0.0933893 L 31.778157 -0.0933893 L 33.314615 16.000362 L 30.262532 16.000362 L 30.033365 13.396195 L 28.085448 13.396195 L 27.897948 16.000362 Z M 28.335448 10.828486 L 29.793782 10.828486 L 29.085449 2.640986 L 28.934407 2.640986 Z M 45.64795 16.000362 L 45.64795 -0.0933893 L 48.8667 -0.0933893 L 48.8667 13.265987 L 52.184408 13.265987 L 52.184408 16.000362 Z M 56.418784 16.000362 L 56.418784 -0.0933893 L 59.533367 -0.0933893 L 59.533367 16.000362 Z M 68.132326 16.151403 C 66.668784 16.151403 65.616701 15.792028 64.965659 15.06807 C 64.314618 14.338903 63.991701 13.172237 63.991701 11.557653 L 63.991701 9.984736 L 67.158368 9.984736 L 67.158368 11.989945 C 67.158368 12.792028 67.413576 13.19307 67.923993 13.19307 C 68.210451 13.19307 68.413576 13.104528 68.522951 12.937862 C 68.637534 12.765987 68.694826 12.484737 68.694826 12.083695 C 68.694826 11.557653 68.632326 11.125361 68.507326 10.78682 C 68.382326 10.437861 68.220868 10.151403 68.028159 9.917028 C 67.835451 9.687861 67.486493 9.328486 66.986493 8.838903 L 65.601076 7.453486 C 64.528159 6.406611 63.991701 5.239944 63.991701 3.969111 C 63.991701 2.594111 64.304201 1.552444 64.939618 0.833694 C 65.569826 0.114944 66.491701 -0.244431 67.700034 -0.244431 C 69.147951 -0.244431 70.194826 0.135777 70.830243 0.906611 C 71.470868 1.677444 71.788576 2.875361 71.788576 4.510778 L 68.507326 4.510778 L 68.486493 3.406611 C 68.486493 3.193069 68.429201 3.026403 68.309409 2.901403 C 68.189618 2.776403 68.028159 2.713903 67.814618 2.713903 C 67.564618 2.713903 67.377118 2.781611 67.252118 2.917028 C 67.127118 3.057653 67.064618 3.245153 67.064618 3.484736 C 67.064618 4.005569 67.366701 4.547236 67.960451 5.109736 L 69.84066 6.906611 C 70.272951 7.333695 70.637535 7.739945 70.923993 8.120153 C 71.210451 8.500361 71.444826 8.953486 71.616701 9.469111 C 71.793785 9.989945 71.877118 10.604528 71.877118 11.312861 C 71.877118 12.901403 71.59066 14.104528 71.007326 14.922237 C 70.429201 15.739945 69.470868 16.151403 68.132326 16.151403 Z M 77.819827 16.000362 L 77.819827 2.995153 L 75.908368 2.995153 L 75.908368 -0.0933893 L 82.955244 -0.0933893 L 82.955244 2.995153 L 81.043785 2.995153 L 81.043785 16.000362 Z M 86.903161 16.000362 L 88.460452 -0.0933893 L 93.913578 -0.0933893 L 95.450036 16.000362 L 92.397953 16.000362 L 92.173994 13.396195 L 90.220869 13.396195 L 90.033369 16.000362 Z M 90.470869 10.828486 L 91.929203 10.828486 L 91.220869 2.640986 L 91.069828 2.640986 Z M 107.78337 -0.0933893 L 112.220871 -0.0933893 C 113.371912 -0.0933893 114.231287 0.224319 114.804204 0.859736 C 115.382329 1.495153 115.679204 2.437861 115.689621 3.687861 L 115.726079 11.22432 C 115.736496 12.807653 115.465663 14.000362 114.903163 14.802445 C 114.340662 15.59932 113.413579 16.000362 112.111496 16.000362 L 107.78337 16.000362 Z M 111.585454 13.151403 C 112.173996 13.151403 112.470871 12.864945 112.470871 12.292028 L 112.470871 3.984736 C 112.470871 3.625361 112.439621 3.354528 112.382329 3.177444 C 112.325037 2.995153 112.220871 2.870153 112.069829 2.807653 C 111.918787 2.745153 111.689621 2.713903 111.382329 2.713903 L 111.022954 2.713903 L 111.022954 13.151403 Z M 120.50733 16.000362 L 120.50733 -0.0933893 L 126.955247 -0.0933893 L 126.955247 3.010778 L 123.783371 3.010778 L 123.783371 6.146194 L 126.81983 6.146194 L 126.81983 9.177445 L 123.783371 9.177445 L 123.783371 12.870153 L 127.158372 12.870153 L 127.158372 16.000362 Z M 139.580247 -0.0933893 L 144.022956 -0.0933893 C 145.168789 -0.0933893 146.033373 0.224319 146.60629 0.859736 C 147.184415 1.495153 147.476081 2.437861 147.486498 3.687861 L 147.522956 11.22432 C 147.538581 12.807653 147.26254 14.000362 146.70004 14.802445 C 146.142748 15.59932 145.210456 16.000362 143.908373 16.000362 L 139.580247 16.000362 Z M 143.382331 13.151403 C 143.970873 13.151403 144.267748 12.864945 144.267748 12.292028 L 144.267748 3.984736 C 144.267748 3.625361 144.236498 3.354528 144.179206 3.177444 C 144.127123 2.995153 144.022956 2.870153 143.871914 2.807653 C 143.720873 2.745153 143.491706 2.713903 143.179206 2.713903 L 142.819831 2.713903 L 142.819831 13.151403 Z M 152.304207 16.000362 L 152.304207 -0.0933893 L 158.752124 -0.0933893 L 158.752124 3.010778 L 155.580249 3.010778 L 155.580249 6.146194 L 158.616707 6.146194 L 158.616707 9.177445 L 155.580249 9.177445 L 155.580249 12.870153 L 158.960457 12.870153 L 158.960457 16.000362 Z M 167.330249 16.151403 C 165.871916 16.151403 164.814624 15.792028 164.163582 15.06807 C 163.517749 14.338903 163.189624 13.172237 163.189624 11.557653 L 163.189624 9.984736 L 166.356291 9.984736 L 166.356291 11.989945 C 166.356291 12.792028 166.611499 13.19307 167.127124 13.19307 C 167.413583 13.19307 167.611499 13.104528 167.726083 12.937862 C 167.835458 12.765987 167.892749 12.484737 167.892749 12.083695 C 167.892749 11.557653 167.830249 11.125361 167.705249 10.78682 C 167.580249 10.437861 167.418791 10.151403 167.226083 9.917028 C 167.033374 9.687861 166.689624 9.328486 166.189624 8.838903 L 164.798999 7.453486 C 163.726082 6.406611 163.189624 5.239944 163.189624 3.969111 C 163.189624 2.594111 163.507332 1.552444 164.137541 0.833694 C 164.767749 0.114944 165.689624 -0.244431 166.903166 -0.244431 C 168.351083 -0.244431 169.392749 0.135777 170.028166 0.906611 C 170.668791 1.677444 170.9865 2.875361 170.9865 4.510778 L 167.705249 4.510778 L 167.689624 3.406611 C 167.689624 3.193069 167.627124 3.026403 167.507333 2.901403 C 167.392749 2.776403 167.226083 2.713903 167.017749 2.713903 C 166.767749 2.713903 166.580249 2.781611 166.455249 2.917028 C 166.330249 3.057653 166.267749 3.245153 166.267749 3.484736 C 166.267749 4.005569 166.564624 4.547236 167.163583 5.109736 L 169.038583 6.906611 C 169.476083 7.333695 169.835458 7.739945 170.121916 8.120153 C 170.413583 8.500361 170.64275 8.953486 170.819833 9.469111 C 170.991708 9.989945 171.08025 10.604528 171.08025 11.312861 C 171.08025 12.901403 170.788583 14.104528 170.210458 14.922237 C 169.627124 15.739945 168.668791 16.151403 167.330249 16.151403 Z M 175.632333 16.000362 L 175.632333 -0.0933893 L 182.08025 -0.0933893 L 182.08025 3.010778 L 178.908375 3.010778 L 178.908375 6.146194 L 181.950042 6.146194 L 181.950042 9.177445 L 178.908375 9.177445 L 178.908375 12.870153 L 182.288584 12.870153 L 182.288584 16.000362 Z M 190.418792 16.151403 C 189.679209 16.151403 189.007334 16.00557 188.408376 15.719112 C 187.809417 15.432653 187.340667 15.010778 186.996917 14.453487 C 186.653167 13.896195 186.481292 13.229528 186.481292 12.44307 L 186.481292 8.41182 L 189.647959 8.41182 L 189.647959 12.250362 C 189.647959 12.542028 189.710459 12.765987 189.825042 12.937862 C 189.944834 13.104528 190.132334 13.19307 190.382334 13.19307 C 190.616709 13.19307 190.793792 13.114945 190.913584 12.958695 C 191.028168 12.797237 191.090668 12.578487 191.090668 12.292028 L 191.090668 -0.0933893 L 194.335459 -0.0933893 L 194.335459 11.969112 C 194.335459 12.807653 194.168793 13.542028 193.835459 14.172237 C 193.507334 14.802445 193.043793 15.28682 192.450043 15.635778 C 191.856293 15.979528 191.179209 16.151403 190.418792 16.151403 Z M 202.892752 16.151403 C 201.595877 16.151403 200.611501 15.75557 199.934418 14.963903 C 199.262543 14.167028 198.924001 13.052445 198.924001 11.614945 L 198.924001 3.948278 C 198.924001 2.562861 199.262543 1.521194 199.934418 0.812861 C 200.611501 0.109736 201.595877 -0.244431 202.892752 -0.244431 C 204.194835 -0.244431 205.17921 0.109736 205.856293 0.812861 C 206.533377 1.521194 206.871919 2.562861 206.871919 3.948278 L 206.871919 11.614945 C 206.871919 13.06807 206.533377 14.182653 205.856293 14.969112 C 205.17921 15.75557 204.194835 16.151403 202.892752 16.151403 Z M 202.892752 13.19307 C 203.184418 13.19307 203.377127 13.06807 203.476085 12.81807 C 203.575043 12.56807 203.627127 12.213903 203.627127 11.760778 L 203.627127 3.896194 C 203.627127 3.542028 203.580252 3.260778 203.486502 3.042028 C 203.392752 2.823278 203.205252 2.713903 202.913585 2.713903 C 202.377127 2.713903 202.106293 3.120153 202.106293 3.932653 L 202.106293 11.781612 C 202.106293 12.245153 202.163585 12.594112 202.278168 12.833695 C 202.392752 13.073278 202.595877 13.19307 202.892752 13.19307 Z M 215.470877 16.151403 C 214.007336 16.151403 212.950044 15.792028 212.304211 15.06807 C 211.653169 14.338903 211.330252 13.172237 211.330252 11.557653 L 211.330252 9.984736 L 214.491711 9.984736 L 214.491711 11.989945 C 214.491711 12.792028 214.752127 13.19307 215.262544 13.19307 C 215.549002 13.19307 215.746919 13.104528 215.861502 12.937862 C 215.976086 12.765987 216.033377 12.484737 216.033377 12.083695 C 216.033377 11.557653 215.970877 11.125361 215.845877 10.78682 C 215.720877 10.437861 215.559419 10.151403 215.361502 9.917028 C 215.168794 9.687861 214.825044 9.328486 214.325044 8.838903 L 212.939627 7.453486 C 211.866711 6.406611 211.330252 5.239944 211.330252 3.969111 C 211.330252 2.594111 211.642752 1.552444 212.272961 0.833694 C 212.908377 0.114944 213.825044 -0.244431 215.038586 -0.244431 C 216.486503 -0.244431 217.528169 0.135777 218.168794 0.906611 C 218.804211 1.677444 219.121919 2.875361 219.121919 4.510778 L 215.845877 4.510778 L 215.825044 3.406611 C 215.825044 3.193069 215.767752 3.026403 215.647961 2.901403 C 215.528169 2.776403 215.361502 2.713903 215.153169 2.713903 C 214.903169 2.713903 214.715669 2.781611 214.590669 2.917028 C 214.465669 3.057653 214.403169 3.245153 214.403169 3.484736 C 214.403169 4.005569 214.700044 4.547236 215.299002 5.109736 L 217.174003 6.906611 C 217.611503 7.333695 217.970878 7.739945 218.257336 8.120153 C 218.549003 8.500361 218.783378 8.953486 218.955253 9.469111 C 219.127128 9.989945 219.215669 10.604528 219.215669 11.312861 C 219.215669 12.901403 218.924003 14.104528 218.345878 14.922237 C 217.767753 15.739945 216.809419 16.151403 215.470877 16.151403 Z M 215.470877 16.151403 " stroke="#764657" stroke-width="0.702975" stroke-opacity="1" stroke-miterlimit="4"/><g fill="#bb95a2" fill-opacity="1"><g transform="translate(271.826786, 267.031242)"><g/></g></g></svg>